<?xml version="1.0" encoding="utf-8"?>
<!-- Generator: Adobe Illustrator 16.0.0, SVG Export Plug-In . SVG Version: 6.00 Build 0)  -->
<!DOCTYPE svg PUBLIC "-//W3C//DTD SVG 1.1//EN" "http://www.w3.org/Graphics/SVG/1.1/DTD/svg11.dtd">
<svg version="1.1" id="图层_1" xmlns="http://www.w3.org/2000/svg" xmlns:xlink="http://www.w3.org/1999/xlink" x="0px" y="0px"
	 width="300px" height="300px" viewBox="147.64 270.945 300 300" enable-background="new 147.64 270.945 300 300"
	 xml:space="preserve">
<g>
	<path fill="#FDACBE" d="M431.677,379.507c-1.543-26.501-14.17-52.194-41.378-61.863c-19.126-6.797-39.01-8.903-57.919,1.137
		c-14.207,7.543-25.166,18.666-31.777,33.639c-0.9,1.551-1.801,3.103-2.701,4.652c-0.899-1.55-1.801-3.102-2.7-4.652
		c-6.611-14.973-17.57-26.096-31.777-33.639c-18.91-10.041-38.793-7.934-57.919-1.137c-14.934,5.307-26.72,16.417-33.597,30.615
		c-8.716,17.984-10.851,39.329-7.456,58.769c5.317,30.468,20.833,55.78,41.168,78.157c11.665,12.838,24.841,24.342,37.716,36.025
		c13.104,11.895,28.051,21.182,44.221,28.33c2.73,1.207,5.869,1.49,8.963,1.875c-0.035,0.143-0.069,0.283-0.102,0.424
		c0.49-0.09,0.985-0.168,1.483-0.24c0.498,0.072,0.994,0.15,1.484,0.24c-0.031-0.141-0.066-0.281-0.103-0.424
		c3.095-0.385,6.232-0.668,8.963-1.875c16.171-7.148,31.116-16.436,44.222-28.33c12.875-11.684,26.051-23.188,37.716-36.025
		c13.104-14.422,24.565-30.518,32.289-48.479c2.971-6.908,4.501-14.096,6.605-21.271c1.922-6.547,1.994-12.506,2.961-19.305
		C432.814,390.676,431.996,385.004,431.677,379.507z"/>
</g>
</svg>
