<?xml version="1.0" encoding="utf-8"?>
<!-- Generator: Adobe Illustrator 16.0.0, SVG Export Plug-In . SVG Version: 6.00 Build 0)  -->
<!DOCTYPE svg PUBLIC "-//W3C//DTD SVG 1.1//EN" "http://www.w3.org/Graphics/SVG/1.1/DTD/svg11.dtd">
<svg xmlns:xlink="http://www.w3.org/1999/xlink" enable-background="new 0 0 84 84" height="84px" id="图层_1" version="1.1" viewBox="0 0 84 84"
	 width="84px" x="0px" xmlns="http://www.w3.org/2000/svg" y="0px" xml:space="preserve">
<g>
	<path d="M58.423,50.004l4.057,2.344l-1.274,2.209l-4.059-2.342v2.051h-2.554v-3.523l-2.126-1.23v4.754h-2.552V48.04l-4.421-2.553
		l1.926,3.328l-2.212,1.273l-1.937-3.348v5.139l5.393,3.113L47.388,57.2l-4.116-2.375v2.455l3.053,1.762l-1.277,2.209l-1.775-1.025
		v4.686H40.72v-4.686l-1.778,1.025l-1.276-2.209l3.054-1.762v-2.455L36.604,57.2l-1.278-2.207l5.394-3.113v-5.105l-1.918,3.328
		l-2.208-1.275l1.93-3.354l-4.45,2.566v6.227h-2.551v-4.754l-2.126,1.23v3.523h-2.551v-2.051l-4.049,2.336l-1.276-2.209l4.048-2.338
		l-1.778-1.025l1.277-2.213l3.054,1.766l2.126-1.227l-4.12-2.379l1.279-2.208l5.392,3.113l4.418-2.551l-3.84,0.002v-2.55
		l3.869-0.004L32.8,38.159l-5.392,3.114l-1.279-2.211l4.12-2.377l-2.126-1.229l-3.054,1.765l-1.277-2.212l1.778-1.026l-4.048-2.338
		l1.276-2.208l4.049,2.338v-2.054h2.551v3.527l2.126,1.226v-4.753h2.551v6.228l4.421,2.553l-1.924-3.326l2.21-1.275l1.938,3.347
		v-5.137L35.326,29l1.278-2.212l4.116,2.378V26.71l-3.054-1.763l1.276-2.21l1.778,1.028v-4.675h2.552v4.675l1.775-1.028l1.277,2.21
		l-3.053,1.763v2.455l4.116-2.378L48.665,29l-5.393,3.111v5.104l1.914-3.328l2.21,1.276l-1.93,3.355l4.449-2.569v-6.228h2.552v4.753
		l2.126-1.226v-3.527h2.554v2.054l4.059-2.344l1.274,2.21l-4.057,2.342l1.775,1.026l-1.274,2.212l-3.054-1.765l-2.127,1.229
		l4.118,2.377l-1.277,2.211l-5.395-3.114l-4.419,2.552l3.84-0.005v2.551l-3.868,0.004l4.447,2.57l5.395-3.113l1.277,2.208
		l-4.118,2.379l2.127,1.227l3.054-1.766l1.274,2.213L58.423,50.004z M39.901,40.784v2.424l2.095,1.209l2.099-1.209v-2.424
		l-2.099-1.212L39.901,40.784z" fill="#FDACBE"/>
</g>
</svg>
